<?xml version="1.0" encoding="UTF-8"?>
<svg width="9px" height="16px" viewBox="0 0 9 16" version="1.1" xmlns="http://www.w3.org/2000/svg" xmlns:xlink="http://www.w3.org/1999/xlink">
    <!-- Generator: sketchtool 55.1 (78136) - https://sketchapp.com -->
    <title>8F649BE5-9BA0-4AEE-B746-50A9CE36276B</title>
    <desc>Created with sketchtool.</desc>
    <g id="Transferencias" stroke="none" stroke-width="1" fill="none" fill-rule="evenodd">
        <g id="01.01-MOB-Transferencias-Datos-de-la-transferencia-Sin-datos" transform="translate(-276.000000, -206.000000)" fill="#EC7000" fill-rule="nonzero">
            <g id="Forms/Input-/-04.-Transf.-/-01.-DE-/-1.-Transf.-DE" transform="translate(16.000000, 174.000000)">
                <g id="Ícone/Toque/Laranja" transform="translate(259.000000, 32.000000)">
                    <path d="M8.1640625,7.9921875 L1.1796875,1.0078125 C1.05468687,0.898436953 0.9921875,0.76171957 0.9921875,0.59765625 C0.9921875,0.43359293 1.05468687,0.296875547 1.1796875,0.1875 C1.28906305,0.062499375 1.42578043,0 1.58984375,0 C1.75390707,0 1.89062445,0.062499375 2,0.1875 L9.125,7.2890625 C9.32812602,7.49218852 9.4296875,7.73046738 9.4296875,8.00390625 C9.4296875,8.27734512 9.32812602,8.51562398 9.125,8.71875 L2.0234375,15.8203125 C1.91406195,15.929688 1.77734457,15.9882812 1.61328125,15.9960938 C1.44921793,16.0039063 1.30468813,15.9531255 1.1796875,15.84375 C1.05468687,15.7187494 0.9921875,15.5742196 0.9921875,15.4101563 C0.9921875,15.2460929 1.05468687,15.1015631 1.1796875,14.9765625 L8.1640625,7.9921875 Z" id=""></path>
                </g>
            </g>
        </g>
    </g>
</svg>